<svg xmlns="http://www.w3.org/2000/svg" viewBox="0 0 181.01 31"><defs><style>.cls-1{fill:#011a3d}</style></defs><title>specbee-modified-logo</title><g id="Layer_2" data-name="Layer 2"><g id="Layer_1-2" data-name="Layer 1"><path class="cls-1" d="M15.46 0A15.5 15.5 0 1 0 31 15.5 15.5 15.5 0 0 0 15.46 0zm0 29.5a14 14 0 1 1 14-14 14 14 0 0 1-14 14z"/><path class="cls-1" d="M15.37 2.94A12.6 12.6 0 0 0 5 8.47a12 12 0 0 0-.63 1 12.49 12.49 0 0 0 0 12 12.57 12.57 0 1 0 11-18.55zm9.08 16a2.81 2.81 0 0 1-1.38 2.45L17 25a2.82 2.82 0 0 1-2.8 0L8 21.57a2.8 2.8 0 0 1-1.44-2.42l-.11-7a2.8 2.8 0 0 1 1.4-2.49l6.06-3.61a2.81 2.81 0 0 1 2.82 0l6.17 3.38a2.84 2.84 0 0 1 1.44 2.42zm16.65-4.42a8.15 8.15 0 0 1-2.52-1.75 2.33 2.33 0 0 1-.6-1.53 2.13 2.13 0 0 1 .73-1.6A2.48 2.48 0 0 1 40.46 9a4.84 4.84 0 0 1 3.28 1.66l1.35-1.46A6.64 6.64 0 0 0 40.56 7a4.41 4.41 0 0 0-3.2 1.25 4.19 4.19 0 0 0-1.27 3.13 4.37 4.37 0 0 0 .8 2.57 8.3 8.3 0 0 0 3 2.28A9.55 9.55 0 0 1 42.53 18a2.47 2.47 0 0 1 .58 1.63 2.56 2.56 0 0 1-.88 1.93 3 3 0 0 1-2.15.82 4.55 4.55 0 0 1-3.4-1.84L35.36 22a5.91 5.91 0 0 0 2.12 1.72 6.13 6.13 0 0 0 2.69.62A4.76 4.76 0 0 0 43.69 23a4.68 4.68 0 0 0 1.41-3.46 4.41 4.41 0 0 0-.82-2.6 9.64 9.64 0 0 0-3.18-2.42zM59.84 7a7.51 7.51 0 0 0-3.6.87 8.38 8.38 0 0 0-2.86 2.6v-3h-2.1V30h2.1v-8.9a8.91 8.91 0 0 0 2.94 2.45 8.14 8.14 0 0 0 9.48-1.72 8.64 8.64 0 0 0 2.44-6.21 8.44 8.44 0 0 0-2.47-6.12A8 8 0 0 0 59.84 7zm5.39 12a6.45 6.45 0 0 1-2.37 2.49 6.09 6.09 0 0 1-3.17.89 6.56 6.56 0 0 1-3.26-.88 6.12 6.12 0 0 1-2.37-2.39 6.78 6.78 0 0 1-.83-3.39 6.66 6.66 0 0 1 1.86-4.8A6.07 6.07 0 0 1 59.66 9a6.22 6.22 0 0 1 3.23.87 6.43 6.43 0 0 1 2.35 2.45 6.8 6.8 0 0 1-.01 6.68zm23.6-8.83A8 8 0 0 0 82.18 7a7.76 7.76 0 0 0-6.46 3.14 9.18 9.18 0 0 0 .35 11.61 7.73 7.73 0 0 0 6.23 2.65 8.87 8.87 0 0 0 3.22-.55 7.89 7.89 0 0 0 2.56-1.62 9.92 9.92 0 0 0 2-2.8l-1.77-.95a10.13 10.13 0 0 1-1.78 2.34 6.3 6.3 0 0 1-2 1.17 7 7 0 0 1-2.42.44 5.73 5.73 0 0 1-4.33-1.85A6.81 6.81 0 0 1 76 15.83h14.63a9.08 9.08 0 0 0-1.8-5.66zM76.19 14a7.09 7.09 0 0 1 1.9-3.42A5.87 5.87 0 0 1 82.21 9a6.48 6.48 0 0 1 2.79.62 5.89 5.89 0 0 1 2.12 1.65 7.13 7.13 0 0 1 1.2 2.73zM111 8.76a8.84 8.84 0 0 0-2.56-1.3 10 10 0 0 0-7.77.65 8.43 8.43 0 0 0-3.27 3.22 8.77 8.77 0 0 0-1.19 4.46 8.18 8.18 0 0 0 2.54 6.07 8.8 8.8 0 0 0 6.41 2.5 9.78 9.78 0 0 0 4.48-1 7.85 7.85 0 0 0 3.14-2.77l-1.66-1.11a7.42 7.42 0 0 1-9.4 2A6.36 6.36 0 0 1 99.25 19a6.66 6.66 0 0 1-.9-3.4 6.39 6.39 0 0 1 2-4.72 6.75 6.75 0 0 1 4.9-1.88 6.94 6.94 0 0 1 5.88 2.9l1.66-1A7.22 7.22 0 0 0 111 8.76zm1.79 2.07v-.01l-.01.01h.01zm11.65-3.05a8.72 8.72 0 0 0-2.94 2.46V1h-2.1v22.93h2.1v-3a8.56 8.56 0 0 0 2.85 2.6 7.53 7.53 0 0 0 3.6.86 8 8 0 0 0 5.94-2.54 8.45 8.45 0 0 0 2.47-6.12 8.65 8.65 0 0 0-2.45-6.19 8.14 8.14 0 0 0-9.47-1.76zM133.36 19a6.39 6.39 0 0 1-2.36 2.43 6.22 6.22 0 0 1-3.23.87 6.11 6.11 0 0 1-4.57-1.93 6.59 6.59 0 0 1-1.86-4.81 6.81 6.81 0 0 1 .83-3.39 6.21 6.21 0 0 1 2.37-2.4 6.44 6.44 0 0 1 3.26-.89 6.09 6.09 0 0 1 3.17.89 6.45 6.45 0 0 1 2.37 2.49 6.86 6.86 0 0 1 .02 6.74zm23.48-8.83A8 8 0 0 0 150.19 7a7.76 7.76 0 0 0-6.46 3.14 9.18 9.18 0 0 0 .35 11.61 7.75 7.75 0 0 0 6.23 2.65 8.84 8.84 0 0 0 3.22-.55 7.89 7.89 0 0 0 2.56-1.62 9.92 9.92 0 0 0 2-2.8l-1.77-.95a9.86 9.86 0 0 1-1.78 2.34 6.3 6.3 0 0 1-2 1.17 6.87 6.87 0 0 1-2.42.44 5.73 5.73 0 0 1-4.33-1.85 6.76 6.76 0 0 1-1.79-4.75h14.65a9.08 9.08 0 0 0-1.81-5.66zm-.51 3.83H144.2a7.09 7.09 0 0 1 1.9-3.42A5.89 5.89 0 0 1 150.22 9a6.44 6.44 0 0 1 2.77.62 5.8 5.8 0 0 1 2.12 1.65 7 7 0 0 1 1.22 2.73zm22.38 4.45a10.17 10.17 0 0 1-1.79 2.34 6.19 6.19 0 0 1-2 1.17 6.87 6.87 0 0 1-2.42.44 5.73 5.73 0 0 1-4.33-1.85 6.76 6.76 0 0 1-1.81-4.72H181a9.08 9.08 0 0 0-1.8-5.66A8 8 0 0 0 172.56 7a7.76 7.76 0 0 0-6.46 3.14 9 9 0 0 0-1.9 5.61 9.08 9.08 0 0 0 2.25 6 7.75 7.75 0 0 0 6.23 2.65 8.84 8.84 0 0 0 3.22-.55 7.89 7.89 0 0 0 2.56-1.62 9.92 9.92 0 0 0 2-2.8l-1.76-.95zm-10.24-7.88A5.89 5.89 0 0 1 172.59 9a6.52 6.52 0 0 1 2.78.62 5.77 5.77 0 0 1 2.11 1.65 7 7 0 0 1 1.23 2.73h-12.14a7.09 7.09 0 0 1 1.9-3.43z"/></g></g></svg>